<svg id="svg" version="1.1" xmlns="http://www.w3.org/2000/svg" xmlns:xlink="http://www.w3.org/1999/xlink" width="400" height="406.5040650406504" viewBox="0, 0, 400,406.5040650406504"><g id="svgg"><path id="path0" d="M184.553 9.762 C 101.854 18.626,37.177 90.462,30.086 181.328 C 29.528 188.467,28.737 195.953,28.328 197.962 C 27.642 201.326,28.774 200.982,42.653 193.612 C 122.612 151.152,271.896 149.979,353.194 191.172 C 362.776 196.028,371.066 200.000,371.616 200.000 C 375.043 200.000,365.986 148.359,359.135 128.841 C 331.742 50.790,259.772 1.701,184.553 9.762 M168.293 186.352 C 103.433 191.222,56.033 203.630,31.301 222.211 C 28.394 224.395,26.003 225.596,25.988 224.879 C 25.900 220.908,10.782 257.232,10.124 262.995 C 8.438 277.754,14.095 278.114,29.513 264.228 C 35.968 258.415,41.825 253.659,42.530 253.659 C 47.996 253.659,53.229 292.618,52.467 327.642 C 51.914 353.067,52.248 358.374,55.012 368.055 L 58.194 379.200 53.354 378.232 C 43.233 376.208,37.248 387.405,45.935 392.112 C 56.083 397.611,94.629 392.703,95.632 385.784 C 96.105 382.515,95.369 382.233,85.169 381.784 L 74.198 381.301 70.326 367.480 C 66.706 354.556,66.519 351.864,67.445 326.016 C 68.538 295.489,67.067 280.447,60.942 259.536 C 56.284 243.631,55.322 244.817,79.343 236.846 C 149.037 213.717,278.637 216.468,336.179 242.298 C 342.663 245.209,347.967 248.095,347.967 248.713 C 347.967 249.331,346.147 255.189,343.922 261.731 C 336.500 283.552,334.867 297.066,335.059 335.063 C 335.296 382.044,333.497 388.314,320.286 386.542 C 313.050 385.572,308.432 389.698,312.747 393.279 C 322.341 401.242,362.192 397.594,365.082 388.488 C 367.670 380.332,361.786 376.147,352.953 379.861 L 347.721 382.061 349.038 376.803 C 349.763 373.911,350.136 357.081,349.868 339.402 C 349.335 304.307,350.892 289.356,357.146 269.512 C 361.882 254.484,360.478 254.772,373.460 266.168 C 381.993 273.660,384.522 275.102,386.718 273.725 C 396.174 267.798,381.582 228.980,366.596 220.198 C 323.334 194.845,241.410 180.862,168.293 186.352 " stroke="none" fill="#000000" fill-rule="evenodd"></path></g></svg>